<mxfile><diagram id="I604HNR8jOuORXDMW3vv" name="Página-1"><mxGraphModel dx="1089" dy="459" grid="1" gridSize="10" guides="1" tooltips="1" connect="1" arrows="1" fold="1" page="1" pageScale="1" pageWidth="850" pageHeight="1100" math="0" shadow="0"><root><mxCell id="0"/><mxCell id="1" parent="0"/><mxCell id="2" value="Vivienda" style="swimlane;fontStyle=0;childLayout=stackLayout;horizontal=1;startSize=30;horizontalStack=0;resizeParent=1;resizeParentMax=0;resizeLast=0;collapsible=1;marginBottom=0;whiteSpace=wrap;html=1;" parent="1" vertex="1"><mxGeometry x="100" y="320" width="150" height="190" as="geometry"><mxRectangle x="100" y="320" width="90" height="30" as="alternateBounds"/></mxGeometry></mxCell><mxCell id="5" value="ID&lt;br&gt;Cuidad&lt;br&gt;Area&lt;br&gt;Conglomerdo&lt;br&gt;panelm&lt;br&gt;Estrato&lt;br&gt;fexp&lt;br&gt;upm" style="text;strokeColor=none;fillColor=none;align=left;verticalAlign=middle;spacingLeft=4;spacingRight=4;overflow=hidden;points=[[0,0.5],[1,0.5]];portConstraint=eastwest;rotatable=0;whiteSpace=wrap;html=1;" parent="2" vertex="1"><mxGeometry y="30" width="150" height="160" as="geometry"/></mxCell><mxCell id="7" value="Hogar" style="swimlane;fontStyle=0;childLayout=stackLayout;horizontal=1;startSize=30;horizontalStack=0;resizeParent=1;resizeParentMax=0;resizeLast=0;collapsible=1;marginBottom=0;whiteSpace=wrap;html=1;" parent="1" vertex="1"><mxGeometry x="330" y="310" width="140" height="210" as="geometry"/></mxCell><mxCell id="8" value="ID&lt;br&gt;Cuidad&lt;br&gt;Area&lt;br&gt;Conglomerdo&lt;br&gt;panelm&lt;br&gt;Estrato&lt;br&gt;fexp&lt;br&gt;upm" style="text;strokeColor=none;fillColor=none;align=left;verticalAlign=middle;spacingLeft=4;spacingRight=4;overflow=hidden;points=[[0,0.5],[1,0.5]];portConstraint=eastwest;rotatable=0;whiteSpace=wrap;html=1;" parent="7" vertex="1"><mxGeometry y="30" width="140" height="180" as="geometry"/></mxCell><mxCell id="13" style="edgeStyle=none;html=1;exitX=0.5;exitY=0;exitDx=0;exitDy=0;entryX=0.477;entryY=1.019;entryDx=0;entryDy=0;entryPerimeter=0;fontSize=8;" edge="1" parent="1" source="10" target="5"><mxGeometry relative="1" as="geometry"/></mxCell><mxCell id="10" value="Vertical Container" style="swimlane;whiteSpace=wrap;html=1;" vertex="1" parent="1"><mxGeometry x="100" y="580" width="270" height="220" as="geometry"/></mxCell><mxCell id="11" value="&lt;div&gt;&lt;font style=&quot;font-size: 8px;&quot;&gt;Atributo: Vía de acceso principal a la viviendaq&lt;/font&gt;&lt;span style=&quot;background-color: initial; font-size: medium;&quot;&gt;.&lt;/span&gt;&lt;/div&gt;&lt;div&gt;&lt;font size=&quot;3&quot;&gt;Etiquetas:&lt;/font&gt;&lt;/div&gt;&lt;div&gt;&lt;font size=&quot;3&quot;&gt;1: Carretera, calle pavimentada&lt;/font&gt;&lt;/div&gt;&lt;div&gt;&lt;font size=&quot;3&quot;&gt;2: Empedrado&lt;/font&gt;&lt;/div&gt;&lt;div&gt;&lt;font size=&quot;3&quot;&gt;3: Lastrado, calle de tierra&lt;/font&gt;&lt;/div&gt;&lt;div&gt;&lt;font size=&quot;3&quot;&gt;4: Sendero&lt;/font&gt;&lt;/div&gt;&lt;div&gt;&lt;font size=&quot;3&quot;&gt;5: Río, mar&lt;/font&gt;&lt;/div&gt;&lt;div&gt;&lt;font size=&quot;3&quot;&gt;6: Otro&lt;/font&gt;&lt;/div&gt;" style="text;html=1;align=left;verticalAlign=middle;resizable=0;points=[];autosize=1;strokeColor=none;fillColor=none;" vertex="1" parent="10"><mxGeometry x="30" y="40" width="250" height="170" as="geometry"/></mxCell></root></mxGraphModel></diagram></mxfile>